<?xml version="1.0" encoding="UTF-8" standalone="no"?>
<!-- Created with Inkscape (http://www.inkscape.org/) -->

<svg
   width="297mm"
   height="154mm"
   viewBox="0 0 297 154"
   version="1.1"
   id="svg1254"
   inkscape:version="1.1.2 (76b9e6a115, 2022-02-25)"
   sodipodi:docname="logodemo.svg"
   xmlns:inkscape="http://www.inkscape.org/namespaces/inkscape"
   xmlns:sodipodi="http://sodipodi.sourceforge.net/DTD/sodipodi-0.dtd"
   xmlns="http://www.w3.org/2000/svg"
   xmlns:svg="http://www.w3.org/2000/svg">
  <sodipodi:namedview
     id="namedview1256"
     pagecolor="#505050"
     bordercolor="#eeeeee"
     borderopacity="1"
     inkscape:pageshadow="0"
     inkscape:pageopacity="0"
     inkscape:pagecheckerboard="0"
     inkscape:document-units="mm"
     showgrid="false"
     height="209mm"
     inkscape:zoom="0.75187991"
     inkscape:cx="959.59473"
     inkscape:cy="455.52487"
     inkscape:window-width="1848"
     inkscape:window-height="1016"
     inkscape:window-x="1992"
     inkscape:window-y="27"
     inkscape:window-maximized="1"
     inkscape:current-layer="layer1" />
  <defs
     id="defs1251" />
  <g
     inkscape:label="Layer 1"
     inkscape:groupmode="layer"
     id="layer1">
    <path
       id="path15252"
       style="fill:none;fill-opacity:1;fill-rule:evenodd;stroke:#000000;stroke-width:1.03851;stroke-linecap:butt;stroke-linejoin:miter;stroke-miterlimit:4;stroke-dasharray:none;stroke-dashoffset:0;stroke-opacity:1"
       d="m 138.96343,118.95726 c 0,0 0.22688,0.67731 -1.35467,1.293 M 56.696883,79.298822 c 0,0 0.120055,0.53663 -0.900524,0.51665 m 83.167071,39.141788 c -0.52479,-2.72878 -1.73879,-18.92782 -0.93804,-27.359768 m 1.00691,-8.33984 c 0.80079,-8.43195 1.01239,-13.99901 0.67448,-16.39037 -0.33791,-2.39136 -1.31891,-4.54376 -1.31891,-4.54376 -1.49264,-5.98192 1.7572,-8.15826 3.35332,-7.5503 1.59616,0.60793 4.8908,-0.12629 4.6787,3.40371 -0.21212,3.53006 -1.37737,7.58137 -1.26563,11.38088 0.11154,3.79949 -0.0284,11.268 0.67383,16.37081 0.70232,5.10284 0.3512,30.494008 0.97496,35.912738 0.62379,5.41873 1.18112,9.40901 1.84349,10.53915 0.66236,1.13014 -0.32312,3.32228 -2.39954,2.93721 -2.07644,-0.38503 -3.69117,0.91526 -4.11611,1.55224 -0.42494,0.63693 -3.83423,0.95052 -3.55047,-1.2491 0.15765,-1.22237 0.66766,0.43451 0.81529,-4.62768 0.0579,-1.98419 1.14836,-1.44639 0.53267,-4.72972 -0.25183,-1.21775 -2.03656,0.38563 -2.54608,1.5174 m 0.22646,-7.5306 c -4.21634,2.5385 -10.8972,11.2027 -17.57617,6.29582 -10.11121,-7.42847 -8.09934,-23.61353 -4.01466,-30.163398 4.05934,-6.50921 14.81682,-10.38652 22.00746,-4.78519 m 1.00691,-8.33984 c -9.771,-5.99841 -16.68593,-2.61917 -23.94298,2.91261 -7.36757,5.61603 -9.485,23.629618 -7.38195,32.925128 2.24913,9.94114 3.25298,14.40018 12.33597,18.38001 5.76051,1.58052 13.78064,-3.65619 17.33896,-9.69454 M 77.451621,78.720792 c 1.119961,-4.12473 -1.226549,-5.32027 -2.42415,-4.90107 -1.197629,0.4192 -3.669671,-0.0871 -3.510531,2.34697 0.159095,2.43409 1.033469,5.22762 0.949621,7.84749 -0.08375,2.61987 0.02141,7.76963 -0.505584,11.28819 -0.526958,3.51859 -0.263506,21.026588 -0.731543,24.762978 -0.468028,3.73638 -0.886194,6.48781 -1.383197,7.26708 -0.496985,0.77926 0.242447,2.29081 1.800427,2.02531 1.55798,-0.26551 2.769543,0.6311 3.08838,1.0703 0.318846,0.4392 2.876922,0.65542 2.664007,-0.86127 -0.11839,-0.84289 -0.500718,0.29958 -0.611714,-3.19094 -0.04345,-1.36817 -0.643189,-1.69758 0.26446,-6.03487 0.393743,-1.88157 1.00247,-16.84512 0.401632,-22.659218 -0.600838,-5.8141 -0.678721,-7.32057 -0.425183,-8.96948 m 0,0 c 4.882916,-5.61856 9.635162,-0.48001 12.391694,6.04921 2.773779,6.570038 4.575682,24.008218 -2.290474,31.459548 -4.176712,3.43259 -4.592108,9.59465 -0.375275,10.05138 1.496342,-1.34444 3.624375,-1.1791 5.4516,-0.89508 1.289986,0.20043 1.532991,-2.54224 0.613603,-5.56227 -1.149844,-3.77707 1.821099,-5.95622 2.584747,-10.94207 1.42813,-9.32413 0.227578,-29.274548 -5.353579,-34.355358 -5.213129,-4.74575 -7.287767,-6.08253 -11.807146,-3.86885 0,0 -1.126042,-0.0644 -0.791795,-1.92798 M 57.269098,124.31351 c 1.377179,-0.22712 1.946119,0.0187 2.22794,0.39357 0.281856,0.37567 2.543044,0.56063 2.354848,-0.73674 -0.104681,-0.72099 -0.442634,0.25629 -0.54073,-2.72949 -0.03841,-1.17031 -0.568553,-1.45208 0.233749,-5.16215 0.348064,-1.60951 0.886158,-14.40919 0.355062,-19.382518 -0.531131,-4.97332 -1.019247,-11.86756 -0.795141,-13.27804 0.224114,-1.41047 0.874779,-2.68 0.874779,-2.68 0.990002,-3.52825 -1.16547,-4.8119 -2.224099,-4.4533 -1.058629,0.35857 -3.243804,-0.0746 -3.103132,2.00757 0.02078,0.47183 0.03904,0.91972 0.04444,1.00641 m 0.948327,7.14801 c -0.07394,2.241 -0.116106,5.4804 -0.581858,8.49015 -0.465833,3.00977 -0.242987,17.469768 -0.656709,20.665838 0,0 0.06504,0.21765 -0.308871,0.45713 M 55.79629,79.815472 c -3.903914,0.39904 -7.871912,-1.69666 -15.790277,2.51768 -6.379627,3.39541 -9.557315,14.27451 -7.732482,19.879888 1.951615,5.99467 4.374587,11.36838 12.557277,16.53962 5.906048,3.1839 8.902314,3.21828 10.370896,2.04579 0.753294,-0.58227 1.133274,-0.21174 0.871451,0.47388 -0.261806,0.68561 -1.743747,2.98854 -0.276055,3.09692 0.153904,0.0103 0.566232,0.0554 1.471929,-0.0559 m -1.171326,-8.25356 c -3.966451,1.78338 -10.791446,-2.62197 -14.974185,-6.90425 -6.494914,-6.64945 -5.183123,-16.689118 -1.638796,-20.638818 3.522333,-3.92517 11.838903,-6.46013 18.078308,-3.08242 0,0 0.338204,0.10135 0.08204,1.01239 m 105.77517,-13.41298 c -1.42499,-4.60233 1.67755,-6.27675 3.20132,-5.80901 1.5238,0.46774 4.66911,-0.0972 4.46662,2.61873 -0.2025,2.71593 -1.31493,5.83292 -1.20825,8.75616 0.10654,2.92321 -0.0273,8.66929 0.64326,12.59526 0.6705,3.926 0.3353,23.461278 0.9308,27.630308 0.59549,4.16903 1.12756,7.23905 1.75991,8.10854 0.63234,0.86949 -0.30846,2.55606 -2.29078,2.25982 -1.98231,-0.29625 -3.52384,0.70417 -3.92952,1.19424 -0.40568,0.49004 -3.66043,0.73131 -3.38953,-0.96101 0.15058,-0.94047 0.63711,0.33429 0.77832,-3.56043 0.0552,-1.52657 0.81836,-1.89412 -0.33648,-6.73363 -0.50099,-2.09945 -1.2755,-18.79566 -0.51104,-25.282968 0.76448,-6.48731 1.46708,-15.48031 1.14449,-17.32017 -0.32258,-1.83984 -1.25912,-3.49584 -1.25912,-3.49584 z m 32.19963,19.63087 c -0.12192,0.99166 0.20708,1.85834 2.04456,3.04312 2.1069,1.35859 20.05778,-0.915 20.92663,-5.05771 0.76365,-3.64107 1.11334,-4.43904 -5.67433,-9.35255 -6.78767,-4.91348 -15.54437,-2.56042 -21.77249,0.74041 -6.22813,3.30087 -8.04524,13.8086 -6.26143,19.240668 1.90774,5.80936 3.10025,7.81089 10.8045,10.13661 5.38765,1.6264 17.72111,-7.94867 21.46293,-10.81982 2.32571,-1.784518 8.55533,-5.142118 4.30245,-4.158558 -2.67069,0.61766 -6.33019,3.728428 -9.51234,5.048368 -3.57634,1.48343 -10.93805,7.01487 -16.6032,4.1474 -8.57639,-4.34102 -6.8699,-13.799178 -3.40525,-17.626758 3.44315,-3.80383 12.56773,-6.06964 18.66687,-2.79636 9.31258,4.99786 -4.72018,8.19952 -9.00957,7.24752 -0.99173,-0.2201 -0.95025,-2.53955 -3.00702,-2.62018 -1.48205,0.11881 -2.83422,1.78634 -2.96231,2.82784 z M 59.787215,10.813273 C 51.593857,8.0630487 48.956369,6.9025637 44.363262,7.0835957 39.770174,7.2647107 31.367004,10.408049 28.676874,13.748516 c -2.690139,3.340488 -7.63059,7.540607 -11.183552,16.296801 -3.552963,8.756193 -5.700465,19.454945 -6.349654,31.615515 -0.649162,12.16056 1.099865,29.04394 7.224468,39.637368 6.124631,10.59345 14.831787,17.70168 33.430009,25.79534 18.598222,8.09365 39.377596,12.43939 47.86887,13.80916 11.271125,1.81821 29.900525,4.65983 53.003475,-1.88587 23.10293,-6.5457 50.86202,-23.59814 60.50335,-31.71437 9.64135,-8.116218 35.44061,-23.163188 45.34119,-24.906158 9.90058,-1.74298 27.06169,-2.84079 34.06728,0.57209 M 53.054568,1.3485087 Z M 74.660831,13.386266 c 0,0 3.458753,3.153184 4.99732,4.874563 8.631387,9.656907 -4.411459,20.954815 -8.836781,12.191539 -1.880731,-3.72436 1.24113,-4.01215 0.265062,-8.629954 C 69.882417,16.12623 64.494601,12.818143 59.787368,10.813273 m 14.873463,2.572993 c 0,0 -27.496893,-26.538176 -54.878418,-0.03032 -15.2788192,14.791321 -30.356858,84.346776 1.738529,108.961874 29.039563,22.27145 93.668358,35.88112 129.320078,24.87761 29.30059,-9.0433 53.52148,-24.63107 68.63773,-37.13173 28.08854,-23.228308 45.40041,-28.182648 73.1037,-27.095308" />
    <path
       style="fill:#ff7a00;fill-opacity:1;fill-rule:evenodd;stroke:#230000;stroke-width:0.488331;stroke-miterlimit:4;stroke-dasharray:none;stroke-dashoffset:0;stroke-opacity:1"
       d="m 85.78602,135.30587 c -0.696442,-0.33648 -1.370225,-1.69185 -1.370225,-2.75633 0,-1.57185 0.977148,-3.48384 2.855467,-5.58728 3.930602,-4.40175 5.343133,-9.63714 5.085798,-18.8499 -0.19254,-6.89401 -1.171937,-11.514328 -3.321634,-15.670668 -2.162135,-4.18034 -4.99102,-6.69929 -7.523594,-6.69929 -1.544289,0 -2.90971,0.55083 -4.013452,1.61907 -1.235158,1.19546 -1.42294,2.22396 -1.084717,5.94123 0.802923,8.824528 0.727036,22.523488 -0.153491,27.688708 -0.341569,2.00382 -0.370894,2.96602 -0.159931,5.24423 0.142066,1.53458 0.339068,2.99266 0.437623,3.24018 0.228262,0.5733 -0.550886,0.91511 -1.137016,0.4988 -1.122138,-0.79704 -2.091622,-1.17249 -3.388776,-1.31238 -1.671072,-0.18023 -1.624628,0.0705 -0.794332,-4.28781 0.628418,-3.2986 1.030905,-10.64215 1.048059,-19.12221 0.0063,-3.12674 0.181944,-7.661798 0.390415,-10.077918 0.494745,-5.73607 0.497111,-12.51185 0.0063,-15.5045 -0.440952,-2.68374 -0.496382,-4.42659 -0.14768,-4.6421 0.61909,-0.38263 3.125649,-0.66822 3.606406,-0.41091 0.813528,0.43538 1.144914,1.8483 0.810883,3.45731 -0.32607,1.57066 -0.08159,2.56345 0.739621,3.00292 0.396541,0.21222 0.831304,0.15067 1.88584,-0.26704 2.838601,-1.12435 5.11348,-0.2796 9.031478,3.35376 1.532082,1.42079 2.286762,2.36122 2.947078,3.67242 2.525458,5.01489 3.948865,14.487568 3.65813,24.344468 -0.180909,6.13146 -0.421009,7.54027 -1.899585,11.14393 -1.381839,3.36784 -1.595726,4.83735 -1.023385,7.03057 0.434196,1.66386 0.539587,3.65757 0.216567,4.09722 -0.104474,0.14213 -1.186735,0.26062 -2.405152,0.26331 -1.659123,0.004 -2.386699,0.1172 -2.897995,0.45222 -0.375483,0.24602 -0.715864,0.43945 -0.756407,0.42983 -0.04048,-0.01 -0.3292,-0.14095 -0.641525,-0.29184 z"
       id="path27189" />
    <path
       style="fill:#ff7a00;fill-opacity:1;fill-rule:evenodd;stroke:#230000;stroke-width:0.488331;stroke-miterlimit:4;stroke-dasharray:none;stroke-dashoffset:0;stroke-opacity:1"
       d="m 120.56035,136.91593 c -1.59382,-0.48216 -4.59155,-2.30994 -6.09484,-3.71619 -2.85335,-2.66917 -3.96663,-5.07443 -5.63965,-12.18461 -0.87114,-3.70231 -0.98558,-4.59662 -1.0947,-8.55468 -0.13688,-4.96369 0.16117,-8.30205 1.13902,-12.764008 1.10877,-5.05872 3.46108,-10.09213 5.6942,-12.18421 2.53779,-2.37751 8.41406,-5.71676 11.24658,-6.39096 1.73162,-0.41215 5.1641,-0.3564 7.01909,0.11401 0.87328,0.22145 2.51804,0.85826 3.65503,1.41511 2.77581,1.35949 3.11713,1.25701 3.33037,-0.99989 1.02719,-10.87274 0.9004,-14.67606 -0.64096,-19.22701 -0.64269,-1.89752 -0.5841,-4.66323 0.1215,-5.74023 0.86452,-1.31943 1.39037,-1.47212 3.53195,-1.02559 1.05701,0.22039 2.12627,0.58575 2.37618,0.81191 0.6165,0.55792 0.59205,2.30219 -0.0945,6.73555 -0.50801,3.28084 -0.53688,4.18765 -0.38823,12.20094 0.0883,4.76117 0.27005,9.35438 0.40385,10.20712 0.13376,0.85275 0.36262,8.52748 0.50849,17.054948 0.1458,8.52747 0.33583,16.49291 0.42214,17.70096 0.33005,4.62062 1.18112,9.82753 2.05091,12.54764 0.10988,0.34373 -0.006,0.75044 -0.33126,1.15068 -0.403,0.49767 -0.71002,0.60672 -1.56604,0.55621 -1.52019,-0.0897 -3.00603,0.37721 -4.01244,1.26085 -0.97358,0.85481 -2.21114,1.01445 -2.7578,0.35575 -0.27269,-0.32858 -0.27604,-0.50959 -0.0166,-0.92426 0.17717,-0.28362 0.41208,-1.58237 0.52211,-2.88611 0.11009,-1.30375 0.33607,-2.62444 0.50225,-2.93487 0.32482,-0.60674 0.36233,-2.39016 0.0723,-3.4409 -0.20292,-0.73514 -1.21202,-0.98986 -2.08039,-0.52512 -0.28978,0.15509 -1.094,1.1216 -1.78716,2.1478 -1.73218,2.56447 -3.3473,4.30215 -5.44225,5.85521 -3.69266,2.73748 -8.1274,4.14673 -10.64886,3.38395 z m 6.25212,-8.68952 c 2.02635,-0.59448 3.70631,-1.62488 7.39364,-4.53486 1.79466,-1.41631 3.59286,-2.74569 3.99599,-2.95416 1.2161,-0.62887 1.49314,-1.31213 1.24936,-3.08157 -0.5473,-3.97279 -0.84649,-9.76091 -0.91962,-17.791058 -0.0895,-9.82393 0.11299,-8.89169 -2.19442,-10.10423 -5.98561,-3.14541 -14.95752,-0.96822 -19.77584,4.79893 -2.96854,3.5531 -4.74531,10.274388 -4.41679,16.707998 0.30318,5.93726 2.0235,10.42246 5.30854,13.84031 3.09948,3.2248 5.86086,4.14494 9.35914,3.11864 z"
       id="path27228" />
    <path
       style="fill:#ff7a00;fill-opacity:1;fill-rule:evenodd;stroke:#230000;stroke-width:0.488331;stroke-miterlimit:4;stroke-dasharray:none;stroke-dashoffset:0;stroke-opacity:1"
       d="m 59.665947,123.9408 c -0.186523,-0.18649 -1.009154,-0.28551 -2.123619,-0.25556 l -1.819165,0.0488 0.434205,-0.97188 c 1.027613,-2.30012 0.381104,-3.34622 -1.504025,-2.43364 -1.487032,0.71986 -2.402804,0.70244 -4.76529,-0.0906 -3.704879,-1.24369 -6.846287,-3.18617 -9.85136,-6.09159 -3.213417,-3.10684 -5.061116,-6.14027 -6.671486,-10.95277 -0.733244,-2.19128 -0.889478,-3.04095 -0.889478,-4.837338 0,-5.76114 3.31648,-12.59481 7.347348,-15.13939 1.537974,-0.97089 4.261882,-2.02882 6.513399,-2.52975 1.605629,-0.35721 2.754565,-0.41774 5.765223,-0.30372 4.80424,0.18194 5.027617,0.12256 5.134394,-1.36486 0.107182,-1.49305 0.330973,-1.72313 1.883843,-1.93671 1.025274,-0.141 1.393614,-0.088 1.772622,0.25497 0.822578,0.74443 0.846461,1.60235 0.114028,4.09197 -0.648173,2.20299 -0.681213,2.55934 -0.518691,5.59432 0.09554,1.78279 0.356708,5.16013 0.580508,7.50518 0.515776,5.40439 0.349116,18.417368 -0.283872,22.164638 -0.39305,2.32693 -0.270405,5.73996 0.255167,7.1001 0.13666,0.35383 0.03949,0.45221 -0.447248,0.45221 -0.3421,0 -0.758998,-0.137 -0.926422,-0.30442 z m -2.995519,-7.4998 c 0.38624,-0.38624 0.460984,-1.56033 0.649665,-10.20556 0.117347,-5.373 0.327563,-10.699368 0.467327,-11.836368 0.139781,-1.13699 0.331989,-3.64837 0.427152,-5.58084 0.172391,-3.49918 0.17052,-3.51536 -0.443893,-3.94986 -1.330924,-0.94118 -4.106988,-1.57668 -6.81877,-1.56096 -6.139185,0.0356 -11.523304,2.95115 -13.543411,7.33386 -2.109019,4.57552 -1.971244,10.112208 0.370993,14.910468 2.023957,4.14623 8.451413,9.46174 13.430841,11.10729 1.469024,0.48546 4.893341,0.34873 5.460096,-0.21803 z"
       id="path27267" />
    <path
       style="fill:#ff7a00;fill-opacity:1;fill-rule:evenodd;stroke:#230000;stroke-width:0.488331;stroke-miterlimit:4;stroke-dasharray:none;stroke-dashoffset:0;stroke-opacity:1"
       d="M 109.4814,150.05143 C 84.939658,148.38548 58.261097,141.47814 38.289915,131.61928 27.944917,126.51242 20.893882,121.67412 16.504776,116.67067 9.1704993,108.30982 4.8466472,96.472212 3.5096422,81.093282 3.1656713,77.136582 3.3306043,65.206532 3.7865245,61.064402 5.7133211,43.559772 10.672006,27.372064 17.045254,17.781019 c 1.636098,-2.462158 5.587517,-6.345769 8.730167,-8.5803553 6.931979,-4.928995 13.838186,-7.121959 21.558784,-6.845678 5.86413,0.209848 10.344144,1.435746 16.403602,4.488649 4.473655,2.253941 7.494119,4.3692163 11.683128,8.1818993 5.079665,4.623318 6.606728,7.202455 6.352541,10.729177 -0.158888,2.204856 -1.049994,3.984418 -2.768985,5.529936 -2.453727,2.206121 -4.788552,2.21149 -6.721573,0.01537 -1.495776,-1.699291 -1.59398,-2.560612 -0.678668,-5.952473 1.094999,-4.057588 -1.309712,-8.839922 -6.107179,-12.145526 -2.737995,-1.886569 -4.071222,-2.493105 -9.547113,-4.3433493 -5.353732,-1.808963 -8.15179,-2.4477 -10.72246,-2.4477 -4.41199,0 -11.598174,2.477989 -15.145991,5.2227553 -1.680004,1.299718 -6.088783,6.26667 -8.39905,9.462397 -11.096314,15.349229 -14.7025749,50.251331 -7.459522,72.194531 3.778733,11.447858 10.779968,19.836968 22.450403,26.900828 3.253187,1.96908 11.240827,5.97522 15.570616,7.80935 16.909888,7.16308 37.585471,12.54357 57.754276,15.02964 5.42332,0.66849 20.80273,0.6647 25.97003,-0.006 14.4335,-1.87458 26.91106,-5.90075 43.02319,-13.88246 14.40709,-7.13706 25.07105,-13.79753 36.56656,-22.83869 10.72245,-8.433148 31.58968,-19.997618 41.01018,-22.727578 4.60821,-1.3354 16.84696,-2.42286 23.7211,-2.10769 6.65098,0.30493 7.24714,0.52032 2.06726,0.74692 -15.65704,0.68494 -25.2207,3.1247 -37.68072,9.61267 -7.02161,3.65618 -14.5387,8.799468 -24.0561,16.459518 -7.46074,6.00476 -11.93006,9.32162 -17.85293,13.24939 -15.64475,10.37482 -31.77925,18.28695 -48.96838,24.01336 -7.1772,2.39102 -14.76328,3.87607 -23.11458,4.52488 -4.01306,0.31176 -16.46973,0.29824 -21.20244,-0.023 z"
       id="path27306" />
    <path
       style="fill:#ff7a00;fill-opacity:1;fill-rule:evenodd;stroke:#230000;stroke-width:0.488331;stroke-miterlimit:4;stroke-dasharray:none;stroke-dashoffset:0;stroke-opacity:1"
       d="m 164.6972,130.00684 c -0.32235,-0.0833 -0.41495,-0.25752 -0.29311,-0.55145 0.77776,-1.87648 1.06278,-6.80261 0.53522,-9.2505 -1.11279,-5.16335 -1.35152,-21.328608 -0.43644,-29.552738 0.30837,-2.77142 0.6293,-7.19021 0.71314,-9.81952 l 0.15245,-4.78054 -0.81067,-2.0222 c -0.93936,-2.34317 -1.02802,-3.81998 -0.30092,-5.01249 0.64489,-1.05769 1.44851,-1.25383 3.70557,-0.90447 2.66413,0.41237 2.71813,0.51032 2.13349,3.87051 -0.26569,1.52713 -0.58465,3.41617 -0.70882,4.19785 -0.28797,1.8134 -0.0482,9.83494 0.44409,14.85848 0.20894,2.13186 0.49262,9.225168 0.63041,15.762898 0.22526,10.68702 0.31266,12.23889 0.86607,15.37529 0.33856,1.91868 0.8125,3.95343 1.05325,4.52167 0.42385,1.00051 0.42103,1.04665 -0.0895,1.46 -0.3593,0.29095 -1.02119,0.42686 -2.07879,0.42686 -1.25767,0 -1.8206,0.15179 -2.97108,0.80107 -1.41082,0.79621 -1.64226,0.85254 -2.54445,0.61928 z"
       id="path27345" />
    <path
       style="fill:#ff7a00;fill-opacity:1;fill-rule:evenodd;stroke:#230000;stroke-width:0.488331;stroke-miterlimit:4;stroke-dasharray:none;stroke-dashoffset:0;stroke-opacity:1"
       d="m 195.58236,110.64976 c -4.24983,-1.10087 -7.23326,-3.10837 -8.55766,-5.75828 -1.58255,-3.16644 -1.9589,-4.78559 -1.95841,-8.425138 5.4e-4,-3.80388 0.36805,-5.55457 1.80449,-8.59609 1.71515,-3.63168 4.28558,-5.58998 9.72758,-7.41099 5.94549,-1.98949 11.17503,-1.66172 15.25712,0.95625 2.23442,1.43302 5.30912,4.01847 5.88286,4.9468 0.58782,0.95111 0.6796,2.33013 0.25647,3.85386 -0.34418,1.23945 -1.85883,2.25707 -4.69182,3.15218 -4.47159,1.41285 -11.81114,2.42253 -14.27027,1.96311 -1.40981,-0.26338 -2.72613,-1.3652 -2.72613,-2.28187 0,-1.39483 1.8305,-2.93904 2.84215,-2.39762 0.28149,0.15065 0.68985,0.61822 0.90746,1.03904 0.73138,1.41431 1.3846,1.6359 4.3361,1.47088 6.07293,-0.33952 10.53792,-2.66844 9.91026,-5.16919 -0.42805,-1.70549 -3.18311,-3.63847 -6.39678,-4.48802 -2.34657,-0.62033 -6.47819,-0.55611 -9.14432,0.14213 -7.07404,1.85268 -10.50541,6.26654 -10.15025,13.05656 0.1026,1.95966 0.26277,2.65989 0.92773,4.053148 1.03433,2.16725 3.29218,4.35585 5.61507,5.44287 1.49178,0.69809 1.97816,0.79751 3.82124,0.78117 1.39441,-0.0125 2.72517,-0.20931 3.91706,-0.57972 2.04182,-0.63453 10.66251,-4.86738 13.51557,-6.636278 1.03595,-0.64228 1.92885,-1.12246 1.98422,-1.06707 0.12961,0.12965 -6.26015,4.854588 -9.32238,6.893428 -4.37901,2.91556 -8.60545,4.907 -11.21267,5.28326 -0.49744,0.0718 -1.52105,-0.0291 -2.27469,-0.22442 z"
       id="path27384" />
  </g>
</svg>
