<?xml version="1.0" encoding="UTF-8" standalone="no"?>
<!-- Created with Inkscape (http://www.inkscape.org/) -->

<svg
   width="297mm"
   height="154mm"
   viewBox="0 0 297 154"
   version="1.1"
   id="svg1254"
   inkscape:version="1.1.2 (76b9e6a115, 2022-02-25)"
   sodipodi:docname="logodemo.svg"
   xmlns:inkscape="http://www.inkscape.org/namespaces/inkscape"
   xmlns:sodipodi="http://sodipodi.sourceforge.net/DTD/sodipodi-0.dtd"
   xmlns="http://www.w3.org/2000/svg"
   xmlns:svg="http://www.w3.org/2000/svg">
  <sodipodi:namedview
     id="namedview1256"
     pagecolor="#505050"
     bordercolor="#eeeeee"
     borderopacity="1"
     inkscape:pageshadow="0"
     inkscape:pageopacity="0"
     inkscape:pagecheckerboard="0"
     inkscape:document-units="mm"
     showgrid="false"
     height="209mm"
     inkscape:zoom="0.75187991"
     inkscape:cx="561.92484"
     inkscape:cy="298.58492"
     inkscape:window-width="1848"
     inkscape:window-height="1016"
     inkscape:window-x="1992"
     inkscape:window-y="27"
     inkscape:window-maximized="1"
     inkscape:current-layer="layer1" />
  <defs
     id="defs1251" />
  <g
     inkscape:label="Layer 1"
     inkscape:groupmode="layer"
     id="layer1">
    <path
       d="m 51.187947,64.124254 c 0,0 0.140489,0.656255 -1.053803,0.631821 m 1.723415,54.417605 c 1.611592,-0.27775 2.277371,0.0229 2.607161,0.48131 0.329834,0.4594 2.975903,0.6856 2.755674,-0.90098 -0.122499,-0.88173 -0.517976,0.31341 -0.632771,-3.33796 -0.04495,-1.43119 -0.665327,-1.77577 0.273536,-6.31291 0.40731,-1.96829 1.036995,-17.621296 0.4155,-23.703286 -0.621535,-6.081978 -1.192735,-14.51309 -0.930486,-16.237996 0.262264,-1.724894 1.023678,-3.27743 1.023678,-3.27743 1.158512,-4.314771 -1.363845,-5.884574 -2.602667,-5.446035 -1.238821,0.438503 -3.795939,-0.09123 -3.63132,2.4551 0.0243,0.577012 0.04569,1.124745 0.05201,1.230761 m 1.109746,8.741453 c -0.08652,2.740566 -0.135871,6.702097 -0.680898,10.382783 -0.545124,3.680712 -0.284348,21.36415 -0.76849,25.2727 0,0 0.07611,0.26616 -0.361445,0.55902 M 50.134064,64.756075 C 45.565653,65.24407 40.922257,62.681195 31.65609,67.835 c -7.465518,4.152319 -11.184088,17.456601 -9.048646,24.311538 2.283804,7.33101 5.119195,13.902632 14.694677,20.226642 6.911332,3.89367 10.417598,3.93571 12.13615,2.50185 0.881515,-0.71206 1.326171,-0.25895 1.019781,0.57952 -0.306368,0.83845 -2.040554,3.65474 -0.32304,3.78728 0.180099,0.0126 0.662611,0.0678 1.722466,-0.0684 M 50.486778,109.08 c -4.641588,2.18093 -12.628278,-3.20646 -17.522972,-8.44336 -7.600428,-8.131748 -6.065354,-20.409473 -1.91774,-25.239644 4.121878,-4.800175 13.854029,-7.900231 21.155458,-3.769558 0,0 0.39577,0.123943 0.096,1.238074"
       style="fill:none;fill-opacity:1;fill-rule:evenodd;stroke:#1e0000;stroke-width:0.328703;stroke-linecap:butt;stroke-linejoin:miter;stroke-miterlimit:4;stroke-dasharray:none;stroke-dashoffset:0;stroke-opacity:1"
       id="path6835-6" />
    <path
       d="m 135.65194,112.61768 c 0,0 0.21825,0.92491 -1.3032,1.76566 m 1.3032,-1.76566 c -0.50486,-3.7263 -1.67273,-25.847014 -0.9024,-37.361327 m 0.96865,-11.388526 c 0.77036,-11.514307 0.97392,-19.116444 0.64885,-22.381983 -0.32507,-3.265538 -1.2688,-6.204762 -1.2688,-6.204762 -1.43593,-8.168653 1.69044,-11.14057 3.22591,-10.310365 1.53551,0.830162 4.70497,-0.172456 4.50093,4.64796 -0.20407,4.820497 -1.32504,10.352792 -1.21755,15.541239 0.10731,5.18842 -0.0273,15.387095 0.64823,22.355273 0.67563,6.968232 0.33786,41.641311 0.93791,49.040901 0.60009,7.39958 1.13625,12.84853 1.77345,14.39181 0.63719,1.54326 -0.31084,4.53676 -2.30837,4.01092 -1.99754,-0.52578 -3.55092,1.24984 -3.95971,2.11967 -0.40879,0.86977 -3.68854,1.298 -3.41556,-1.70572 0.15165,-1.66921 0.64229,0.59335 0.78431,-6.31936 0.0557,-2.70952 1.10473,-1.97512 0.51243,-6.45869 -0.24226,-1.66291 -1.95918,0.52659 -2.44934,2.07209 m 0.21786,-10.28347 c -4.05614,3.46648 -10.48315,15.29793 -16.90834,8.59731 -9.72703,-10.144 -7.79161,-32.245622 -3.86213,-41.189847 3.9051,-8.888697 14.25384,-14.183384 21.17127,-6.53445 m 0.96865,-11.388526 c -9.39974,-8.19117 -16.05193,-3.576626 -23.03324,3.977335 -7.08763,7.669009 -9.12461,32.267598 -7.10147,44.961138 2.16368,13.57519 3.12938,19.66428 11.86726,25.09896 5.54163,2.15829 13.25702,-4.99274 16.68014,-13.23845"
       style="fill:none;fill-opacity:1;fill-rule:evenodd;stroke:#1e0000;stroke-width:0.314931;stroke-linecap:butt;stroke-linejoin:miter;stroke-miterlimit:4;stroke-dasharray:none;stroke-dashoffset:0;stroke-opacity:1"
       id="path7086-5" />
    <path
       d="m 156.55449,47.376393 c -1.70407,-6.87849 2.00609,-9.381024 3.82827,-8.681955 1.82224,0.699069 5.58355,-0.145271 5.3414,3.913868 -0.24216,4.05914 -1.57245,8.71769 -1.44489,13.086668 0.12741,4.368934 -0.0326,12.956836 0.76925,18.824462 0.80181,5.867669 0.40097,35.064454 1.11309,41.295344 0.71212,6.23089 1.34839,10.81925 2.10459,12.11876 0.75618,1.2995 -0.36887,3.8202 -2.73943,3.37745 -2.37053,-0.44277 -4.21396,1.05243 -4.69909,1.78487 -0.48514,0.7324 -4.37732,1.09299 -4.05336,-1.4363 0.18007,-1.40558 0.76188,0.49963 0.93075,-5.3213 0.066,-2.28156 0.97864,-2.83088 -0.40238,-10.06385 -0.59911,-3.13777 -1.5253,-28.091374 -0.61113,-37.787093 0.9142,-9.69572 1.75441,-23.136362 1.36863,-25.886156 -0.38575,-2.749765 -1.5057,-5.224768 -1.5057,-5.224768 z"
       style="fill:none;fill-opacity:1;fill-rule:evenodd;stroke:#1e0000;stroke-width:0.36734;stroke-linecap:butt;stroke-linejoin:miter;stroke-miterlimit:4;stroke-dasharray:none;stroke-dashoffset:0;stroke-opacity:1"
       id="path7173-3" />
    <path
       d="m 191.39414,85.603148 c -0.13767,1.581407 0.23382,2.963536 2.30858,4.85292 2.37897,2.16656 22.64789,-1.45916 23.62894,-8.06563 0.86226,-5.806494 1.25711,-7.079032 -6.40707,-14.914711 -7.66419,-7.835633 -17.55166,-4.083174 -24.58403,1.180749 -7.03238,5.263966 -9.08414,22.020852 -7.06999,30.683501 2.15409,9.264303 3.5006,12.456193 12.19971,16.165073 6.08338,2.59365 20.00949,-12.67592 24.2345,-17.254613 2.62604,-2.84581 9.66011,-8.200229 4.85804,-6.631729 -3.01557,0.98499 -7.14763,5.945789 -10.74069,8.050729 -4.03817,2.365663 -12.35051,11.186773 -18.74723,6.613953 -9.68388,-6.922723 -7.75702,-22.005854 -3.84497,-28.109763 3.88778,-6.066049 14.19063,-9.679383 21.07737,-4.459415 10.51515,7.970195 -5.3297,13.075936 -10.173,11.557761 -1.11979,-0.350983 -1.07296,-4.049876 -3.39532,-4.178442 -1.67344,0.189452 -3.20021,2.848714 -3.34484,4.509617 z"
       style="fill:none;fill-opacity:1;fill-rule:evenodd;stroke:#1e0000;stroke-width:0.368713;stroke-linecap:butt;stroke-linejoin:miter;stroke-miterlimit:4;stroke-dasharray:none;stroke-dashoffset:0;stroke-opacity:1"
       id="path7491-5" />
    <path
       d="M 60.68579,11.272087 C 52.49243,8.5218562 49.854944,7.3613662 45.261836,7.5424062 c -4.593087,0.18111 -12.99626,3.3244608 -15.68639,6.6649208 -2.69014,3.34048 -7.63059,7.5406 -11.18355,16.29681 -3.55296,8.75618 -5.70047,19.45493 -6.34965,31.6155 -0.64917,12.16057 1.09986,29.04395 7.22446,39.637373 6.12463,10.59346 14.83179,17.70169 33.430014,25.79535 18.598221,8.09365 39.377596,12.43939 47.86887,13.80916 11.27113,1.81821 29.90053,4.65983 53.00348,-1.88587 23.10293,-6.5457 50.86202,-23.59814 60.50335,-31.71437 9.64135,-8.116223 35.44061,-23.163193 45.34119,-24.906163 9.90058,-1.74298 27.06169,-2.84079 34.06727,0.57209 M 75.559406,13.845077 c 0,0 3.458752,3.15318 4.99732,4.87456 8.631386,9.65691 -4.411459,20.95482 -8.836782,12.19154 -1.880732,-3.72436 1.241129,-4.01215 0.265063,-8.62996 -1.204016,-5.69618 -6.591832,-9.00427 -11.299066,-11.00913 m 14.873465,2.57299 c 0,0 -27.496895,-26.53818 -54.87842,-0.0303 -15.2788203,14.79132 -30.3568593,84.34678 1.73853,108.961883 29.039563,22.27145 93.668364,35.88112 129.320084,24.87761 29.30059,-9.0433 53.52148,-24.63107 68.63773,-37.13173 28.08854,-23.228313 45.40041,-28.182653 73.10369,-27.095313"
       style="fill:none;fill-opacity:1;fill-rule:evenodd;stroke:#1e0000;stroke-width:0.274772;stroke-linecap:butt;stroke-linejoin:miter;stroke-miterlimit:4;stroke-dasharray:none;stroke-dashoffset:0;stroke-opacity:1"
       id="path7664-3" />
    <path
       d="m 73.921681,54.039485 c 1.283372,-5.768659 -1.405513,-7.440687 -2.777856,-6.854413 -1.372373,0.586274 -4.205107,-0.121813 -4.022745,3.282365 0.182306,3.404208 1.184258,7.311112 1.088176,10.975143 -0.09597,3.664031 0.02452,10.866251 -0.579351,15.787149 -0.603848,4.920939 -0.301954,29.406841 -0.838282,34.632381 -0.53632,5.22553 -1.015499,9.07356 -1.585016,10.16341 -0.569502,1.08984 0.277819,3.20382 2.063123,2.8325 1.785302,-0.37133 3.173642,0.88264 3.539001,1.49688 0.36537,0.61424 3.296689,0.91664 3.05271,-1.20453 -0.135665,-1.17883 -0.573778,0.41897 -0.700969,-4.46271 -0.04979,-1.91345 -0.737036,-2.37415 0.303047,-8.44009 0.451191,-2.63148 1.148737,-23.558827 0.460232,-31.690162 -0.688504,-8.131336 -0.777752,-10.238216 -0.48722,-12.544293 m 0,0 c 5.595375,-7.857876 11.041017,-0.67132 14.199749,8.460136 3.178498,9.188558 5.243311,33.576809 -2.62467,43.997899 -4.786129,4.80066 -5.262138,13.41864 -0.430037,14.05741 1.714669,-1.88028 4.153208,-1.64904 6.247035,-1.25182 1.478212,0.28031 1.756667,-3.55546 0.703142,-7.77914 -1.317624,-5.28244 2.086803,-8.33009 2.961875,-15.30308 1.636507,-13.040307 0.260787,-40.942062 -6.134714,-48.047851 -5.973759,-6.637176 -8.351112,-8.50675 -13.529905,-5.410798 0,0 -1.290343,-0.09006 -0.907325,-2.696386"
       style="fill:none;fill-opacity:1;fill-rule:evenodd;stroke:#1e0000;stroke-width:0.347847;stroke-linecap:butt;stroke-linejoin:miter;stroke-miterlimit:4;stroke-dasharray:none;stroke-dashoffset:0;stroke-opacity:1"
       id="path6894-7" />
    <path
       style="fill:#ff7a00;fill-opacity:1;fill-rule:evenodd;stroke:#1e0000;stroke-width:2.51339;stroke-opacity:1"
       d="m 725.32174,435.55994 c -6.21735,-1.7857 -19.70369,-9.57784 -25.6767,-14.83549 -7.36912,-6.48656 -11.52366,-13.63383 -15.77751,-27.14287 -7.69917,-24.4504 -9.52472,-48.86917 -5.51108,-73.71667 5.38613,-33.34416 14.94427,-51.60544 33.32757,-63.67389 16.1057,-10.57323 28.1465,-15.05467 42.50508,-15.81989 21.36235,-1.13848 32.03067,4.16458 50.93565,25.31935 12.75876,14.27712 16.15225,20.97321 16.1426,31.85272 -0.0148,16.66522 -3.8952,23.1777 -18.24351,30.61806 -16.7798,8.7012 -39.37848,14.31364 -57.63437,14.31364 -10.34344,0 -10.99603,-0.18045 -14.59835,-4.03675 -5.86651,-6.28012 -7.34257,-12.27167 -4.71695,-19.14677 2.57239,-6.7357 7.5501,-11.81554 10.95947,-11.18434 1.34539,0.24908 3.79417,3.12614 5.44175,6.39347 4.57381,9.07038 5.59621,9.68923 15.83348,9.58404 16.41247,-0.16865 36.44464,-8.67012 40.94755,-17.37777 2.58696,-5.00264 2.65563,-12.43829 0.15946,-17.26536 -2.88172,-5.57263 -12.17417,-13.36327 -20.46874,-17.16064 -19.82762,-9.07739 -48.2113,-3.03037 -65.11389,13.87221 -12.42413,12.42414 -18.92421,31.89617 -18.88879,56.58446 0.0108,7.53635 0.90305,17.44922 1.98275,22.0286 4.11053,17.4342 15.17446,33.28346 27.53354,39.44225 13.11245,6.53421 25.95324,3.72973 46.06795,-10.06141 24.92666,-17.09035 28.64483,-19.83363 41.44143,-30.57575 12.51358,-10.50455 23.63081,-17.8534 24.97495,-16.50926 1.22095,1.22096 -64.55186,65.56473 -75.06333,73.43244 -16.35921,12.24468 -28.69005,17.32596 -36.56001,15.06562 z"
       id="path8228"
       transform="scale(0.26458333)" />
    <path
       style="fill:#ff7a00;fill-opacity:1;fill-rule:evenodd;stroke:#1e0000;stroke-width:2.51339;stroke-opacity:1"
       d="M 410.96988,569.74065 C 293.22107,560.73223 164.70793,519.68715 92.067151,467.88815 43.471386,433.23526 18.232676,375.73978 14.502755,291.1912 11.137976,214.91955 34.786557,114.79218 67.260341,67.817189 84.359187,43.082834 118.48796,19.958308 148.96916,12.453995 c 14.03208,-3.4546233 40.19514,-4.1183396 53.19078,-1.349367 35.31624,7.524812 68.45458,26.535407 96.1147,55.138483 11.60336,11.998929 15.48267,19.709628 15.51933,30.846862 0.0654,19.876907 -18.91157,35.644117 -33.69759,27.997967 -7.77305,-4.0196 -11.67707,-14.05953 -8.74217,-22.48216 2.56022,-7.3474 2.45962,-17.52946 -0.25255,-25.561377 -3.21488,-9.520593 -17.7716,-23.628878 -31.70173,-30.725104 -18.32899,-9.337079 -50.85158,-18.996918 -64.08552,-19.034648 -13.94215,-0.03975 -35.13569,6.16565 -50.45713,14.773677 -13.52961,7.601327 -39.611547,38.415498 -50.172041,59.275132 -30.072697,59.40113 -39.247606,163.64323 -20.829213,236.65418 12.263694,48.61358 36.601458,82.51193 79.808934,111.16023 16.68171,11.06064 57.28249,31.29127 83.12498,41.41969 81.69423,32.01827 180.31712,52.7394 250.9996,52.73617 75.62901,-0.004 133.28356,-15.43572 218.49027,-58.48282 50.8013,-25.66522 86.81906,-48.01401 124.35496,-77.1615 33.78604,-26.23561 70.98827,-49.31991 114.37997,-70.9737 31.01176,-15.47582 46.51658,-21.07343 66.49998,-24.00812 34.90798,-5.12643 76.92058,-5.92398 98.41998,-1.86835 8.4897,1.60149 8.0956,1.65901 -21.945,3.20237 -56.384,2.89679 -89.41391,11.03497 -132.83125,32.72804 -30.75054,15.36421 -54.28583,31.28617 -99.91868,67.5964 -30.86343,24.55813 -54.06353,41.38861 -77.65284,56.33312 -76.47184,48.44711 -167.59577,86.81003 -227.58208,95.81144 -7.68075,1.15255 -20.54849,2.69325 -28.59499,3.42378 -17.05476,1.54837 -69.29742,1.45378 -90.43998,-0.16374 z"
       id="path8267"
       transform="scale(0.26458333)" />
    <path
       style="fill:#ff7a00;fill-opacity:1;fill-rule:evenodd;stroke:#1e0000;stroke-width:2.51339;stroke-opacity:1"
       d="m 595.13904,501.36673 c -1.32339,-1.59458 -1.35762,-3.11414 -0.15732,-6.9825 3.30041,-10.63661 4.30325,-31.72254 2.18753,-45.99512 -4.80166,-32.39175 -6.29291,-121.90237 -2.71732,-163.10419 3.15919,-36.4037 5.10986,-74.36818 4.29892,-83.6666 -0.4206,-4.8226 -2.07172,-12.35937 -3.66916,-16.74837 -5.78691,-15.89963 -3.50843,-32.57105 4.98007,-36.43867 3.57041,-1.62678 18.97036,1.02553 22.37879,3.85428 2.68314,2.2268 2.58612,13.22813 -0.25803,29.25939 -1.78641,10.0692 -2.18141,19.65717 -1.94515,47.21499 0.16306,19.01899 0.8513,39.06873 1.52941,44.55498 0.67812,5.48625 1.86494,42.89249 2.63738,83.12498 1.1381,59.27818 1.91785,77.25206 4.11186,94.7814 1.48908,11.89728 3.56751,24.46578 4.61872,27.92999 1.05121,3.46421 1.91777,7.63141 1.92569,9.26042 0.02,4.11052 -4.83257,6.83279 -12.13982,6.81039 -6.34495,-0.0194 -12.66031,2.43385 -15.703,6.10006 -2.2151,2.66903 -9.877,2.69731 -12.07857,0.0446 z"
       id="path8306"
       transform="scale(0.26458333)" />
    <path
       style="fill:#ff7a00;fill-opacity:1;fill-rule:evenodd;stroke:#1e0000;stroke-width:2.51339;stroke-opacity:1"
       d="m 447.79818,520.58803 c -10.69358,-2.23413 -29.17794,-21.71282 -34.82841,-36.70194 -3.71197,-9.8468 -8.41121,-30.66439 -12.10641,-53.63121 -2.30303,-14.314 -2.88904,-23.61877 -2.88984,-45.88499 -0.002,-50.21782 8.48052,-94.76351 22.44969,-117.8964 6.67621,-11.05579 26.2675,-29.12186 37.88087,-34.93179 7.95471,-3.97959 10.95871,-4.77676 18.00021,-4.77676 10.43181,0 19.50737,3.28412 29.10926,10.53362 3.93687,2.97238 7.50216,4.84738 7.92285,4.16669 1.70817,-2.76389 3.60473,-47.34581 2.99749,-70.46157 -0.47606,-18.12239 -1.27362,-26.82968 -2.99371,-32.68372 -2.77244,-9.43549 -3.21873,-27.21681 -0.85554,-34.08667 0.9132,-2.65467 2.82695,-5.88243 4.25279,-7.172801 2.44181,-2.209807 3.03782,-2.219742 10.25743,-0.170989 4.21574,1.196326 8.41311,3.19185 9.32749,4.43451 2.20564,2.99752 2.10073,15.53516 -0.32072,38.32595 -2.14334,20.17338 -2.44488,63.95873 -0.64572,93.76497 0.59609,9.87525 1.72962,58.95224 2.51895,109.05997 0.96372,61.17761 2.11528,98.42961 3.50558,113.40262 1.85039,19.92809 2.69815,26.40178 5.48024,41.84908 0.51438,2.85605 0.0376,5.42025 -1.42165,7.6475 -1.81454,2.76935 -3.24679,3.35076 -8.25428,3.35076 -5.27737,0 -6.75873,0.68612 -11.48599,5.32 -2.98497,2.926 -6.45568,5.31999 -7.71271,5.31999 -3.89079,0 -5.71151,-3.515 -4.65605,-8.98874 0.52774,-2.73694 1.49224,-10.36275 2.14333,-16.94625 0.6511,-6.5835 1.55967,-15.62687 2.01906,-20.09639 1.02052,-9.92894 -0.8031,-14.61565 -4.84526,-12.45236 -1.43882,0.77003 -5.0854,6.31378 -8.1035,12.3194 -7.53193,14.98756 -14.0445,24.21366 -23.31571,33.03045 -12.08446,11.49216 -23.5577,16.41957 -33.42974,14.35707 z m 24.48444,-51.13624 c 2.99901,-1.7407 13.64252,-11.81363 23.65225,-22.38425 l 18.19951,-19.21933 -1.47008,-16.41916 c -0.80855,-9.03053 -1.80683,-41.72022 -2.2184,-72.64374 l -0.74832,-56.22456 -3.98896,-3.35648 c -8.4056,-7.07285 -14.23283,-9.16677 -25.57875,-9.19132 -9.27592,-0.0201 -11.81201,0.53204 -19.78181,4.30648 -11.52255,5.45703 -23.73539,17.60229 -29.774,29.60928 -14.6773,29.18386 -18.86345,81.67583 -9.49094,119.01117 5.74032,22.86651 20.88998,46.43033 31.96596,49.71991 5.93753,1.76346 12.57604,0.65621 19.23354,-3.208 z"
       id="path8345"
       transform="scale(0.26458333)" />
    <path
       style="fill:#ff7a00;fill-opacity:1;fill-rule:evenodd;stroke:#1e0000;stroke-width:2.51339;stroke-opacity:1"
       d="m 316.28495,505.98909 c -5.23537,-1.99565 -7.73423,-7.61462 -7.62949,-17.15573 0.12032,-10.9603 3.96909,-21.09316 11.38864,-29.98349 16.88018,-20.22633 24.99148,-59.95131 22.28348,-109.13308 -2.50905,-45.56862 -12.55934,-78.65168 -29.53676,-97.22769 -10.94961,-11.98061 -20.83297,-12.4471 -31.78007,-1.5 l -5.29625,5.29625 0.80052,17.49229 c 2.04249,44.6304 2.36016,113.05347 0.62622,134.87847 -1.86656,23.49436 -2.26962,44.05754 -1.16632,59.50376 0.64226,8.99153 0.55773,9.32517 -2.47104,9.7538 -2.02879,0.28712 -4.47215,-0.83626 -6.92031,-3.18175 -2.79041,-2.67338 -5.55924,-3.79612 -10.5426,-4.27496 -8.12206,-0.78043 -10.25686,-3.42292 -8.08658,-10.00972 4.12268,-12.51228 5.48447,-31.12162 6.73509,-92.03734 0.70584,-34.38049 1.89532,-70.29048 2.64329,-79.79998 2.0739,-26.36706 1.69595,-65.31137 -0.81605,-84.08638 -2.66594,-19.92555 -1.93893,-21.87735 9.02478,-24.22865 6.21564,-1.33301 7.21847,-1.22601 9.45313,1.00865 3.50242,3.50243 4.76541,10.44031 3.54189,19.45645 -1.02811,7.5762 -0.0597,12.95825 2.63075,14.62106 0.75153,0.46447 3.7571,-0.37514 6.67905,-1.86581 7.67118,-3.91354 15.56267,-3.54401 22.7807,1.06675 8.14326,5.20177 24.43788,22.72542 28.29438,30.42848 12.19634,24.36127 18.6097,66.95019 18.68254,124.06443 0.052,40.77528 -1.0007,49.67548 -8.64887,73.1229 -5.11125,15.66987 -5.37464,17.24044 -4.46535,26.62707 0.53145,5.48625 1.04366,15.06224 1.13823,21.27999 l 0.17195,11.305 -10.881,0.70856 c -7.27472,0.47373 -11.68272,1.4167 -13.29999,2.84519 -1.69551,1.49759 -3.29083,1.8043 -5.33396,1.02548 z"
       id="path8384"
       transform="scale(0.26458333)" />
    <path
       style="fill:#ff7a00;fill-opacity:1;fill-rule:evenodd;stroke:#1e0000;stroke-width:2.51339;stroke-opacity:1"
       d="m 206.68477,450.73957 c -1.75716,-0.97374 -6.70597,-1.79165 -10.99737,-1.81756 -8.65685,-0.0523 -8.76526,-0.29159 -4.68265,-10.33605 2.54782,-6.26841 0.15912,-8.30258 -5.91094,-5.03363 -14.82407,7.98329 -51.9536,-10.31655 -73.43583,-36.19393 -8.92247,-10.74795 -20.610148,-33.91348 -24.670712,-48.8985 -8.973631,-33.11609 8.96001,-78.07993 37.023642,-92.82696 15.63649,-8.21674 26.65108,-10.48642 48.57836,-10.01011 10.41187,0.22616 19.6788,-0.0694 20.59318,-0.65684 0.91437,-0.58742 1.6625,-3.40566 1.6625,-6.26276 0,-5.86869 1.48591,-7.11461 10.20748,-8.55885 4.605,-0.76256 6.02347,-0.44848 8.3125,1.84055 3.38202,3.38202 3.75405,13.35606 0.76501,20.50986 -2.60525,6.23524 -2.60525,28.92254 0,58.06012 2.34073,26.17914 2.48937,58.43077 0.39536,85.78498 -1.8154,23.71462 -2.07803,40.27373 -0.77295,48.73415 0.81948,5.31239 0.61567,6.26224 -1.46017,6.80508 -1.32692,0.34699 -3.85026,-0.1658 -5.60741,-1.13955 z m -14.67945,-38.35506 c 1.50525,-1.50525 2.10393,-11.48497 3.01101,-50.19171 0.6227,-26.57209 1.69897,-53.40014 2.39171,-59.61788 0.69275,-6.21775 1.29719,-16.19962 1.34322,-22.18194 l 0.0837,-10.87694 -7.64749,-2.95701 c -10.41699,-4.02787 -28.66726,-4.94213 -40.29246,-2.01847 -18.91506,4.757 -34.58505,16.1377 -40.76851,29.60908 -9.69596,21.12379 -9.04768,47.53595 1.70296,69.38216 10.17486,20.67615 40.09167,45.45317 61.18315,50.67171 6.52689,1.61492 16.51546,0.65827 18.99273,-1.819 z"
       id="path8423"
       transform="scale(0.26458333)" />
  </g>
</svg>
